<svg xmlns="http://www.w3.org/2000/svg" viewBox="0 0 234 7.5"><defs><style>.cls-1{fill:none;stroke:#ccc;stroke-linecap:round;stroke-miterlimit:10;stroke-width:3px;}.cls-2{fill:#ccc;}</style></defs><g id="レイヤー_2" data-name="レイヤー 2"><g id="レイヤー_1-2" data-name="レイヤー 1"><line class="cls-1" x1="3.8" y1="3.8" x2="230.2" y2="3.8"/><path class="cls-2" d="M120.8,3.8a3.8,3.8,0,0,1-7.6,0,3.8,3.8,0,0,1,7.6,0ZM3.8,0A3.8,3.8,0,0,0,0,3.8a3.8,3.8,0,0,0,7.5,0A3.8,3.8,0,0,0,3.8,0ZM60.4,0a3.8,3.8,0,0,0-3.8,3.8,3.8,3.8,0,0,0,3.8,3.7,3.7,3.7,0,0,0,3.7-3.7A3.7,3.7,0,0,0,60.4,0ZM173.6,0a3.7,3.7,0,0,0-3.7,3.8,3.7,3.7,0,0,0,3.7,3.7,3.8,3.8,0,0,0,3.8-3.7A3.8,3.8,0,0,0,173.6,0Zm56.6,0a3.8,3.8,0,0,0,0,7.5A3.8,3.8,0,0,0,234,3.8,3.8,3.8,0,0,0,230.2,0Z"/></g></g></svg>